<svg xmlns="http://www.w3.org/2000/svg" xmlns:xlink="http://www.w3.org/1999/xlink" width="1009.5" height="789.9"><style><![CDATA[.B{opacity:.1}.C{fill:#fed68d}.D{fill:#dce6f2}.E{fill:#efb7b9}.F{fill:#444053}]]></style><defs><linearGradient id="A" x1="318.2" y1="488.5" x2="630.4" y2="488.5" gradientUnits="userSpaceOnUse"><stop offset="0" stop-color="gray" stop-opacity=".3"/><stop offset=".5" stop-color="gray" stop-opacity=".1"/><stop offset="1" stop-color="gray" stop-opacity=".1"/></linearGradient><path id="B" d="M316.3 592.5l-2.7 62.8s-4 12.8-1.8 16.5 5.8 7.3 4.5 9.5S299 707 293.8 698s-10.3-48-10.3-48l4.8-48.2z"/></defs><g class="C"><ellipse cx="354.1" cy="741.3" rx="176.1" ry="33.4" class="B"/><path d="M586.6 111.4c-64.7-2.2-126.4-23-185.2-46L221 5c-40.6-7.8-87-9-119.8 13C69.7 39 59.5 75 54 108.7c-4 25.3-6.5 52 4.7 75.5 7.8 16.4 21.7 30.2 31.4 46 33.5 54.7 9.8 122.2-26.5 175.6l-50 75.7C.7 508-5.4 538.7 6 566c11.4 27 38.5 47.2 68 61.5 59.7 29 130 37.2 198.6 42 151.8 10.4 304.5 6 456.7 1.4 56.3-1.7 113-3.3 168.3-12 30.8-4.8 62.6-12.5 85-31 28.4-23.5 35.4-63.4 16.4-93-32-49.5-120-61.8-142.3-115-12.3-29.2.3-61.8 18.2-89C913 272.8 977 221.8 980.4 155.3c2.3-45.7-28.5-91.4-76-113-50-22.6-119.2-19.8-156 17.7-38 38.6-104.6 53.4-161.8 51.4z" class="B"/></g><path d="M630.4 416.8L599.7 396l15.4-23-81-6.4-29 22.5-36.4-20.4-30.4 3.6-.4-8a226 226 0 0 0-2.5-24.9l.2-8.5c0-13-1.8-30.6-9.6-42.2l1.8-16.2-14.6-17.2c2.3-4.7 5-9.2 8-13.5.5-.7 1-1.4 1.5-2 19-1.4 34-17 34-36l-.1-2.6c0-.3-.1-.7-.1-1l5.6 3c.3.5.8 1 1.2 1.6h0l1.6 2 1.7 1.8c.1.1.1.1.2.2l.8.7 3.6 2.8 2.5 1.3q.5.2 1 .4l3 .8c.4.1 1 .1 1.3.1h.3a11 11 0 0 0 1.1 0h.3l1.4-.2c2.2-.3 4.4-1 6.3-2.3.5-.3 1-.7 1.3-1.2 2-2.6-.2-5.5-.2-5.5h0c-.8-2-5.8-3.2-5.8-3.2s-16-6.7-16-12-4-33-45.3-39.2c0 0-27-1.5-34.4 13l-.2 1.7c-2.2 1.4-4 4.2-6.2 5-1 .2-2 .5-2.7 1v-.2c-.3.2-.5.5-.6.8a8 8 0 0 0-.8 3c-.2 1.3-.7 2.5-1.3 3.6l-.8 1.2c1.2.1 2.3-.1 3.4-.6a17 17 0 0 1-1 4c1.3 0 2.5-.7 3-1.8v-.1l.1-.2c.3-.5.5-1 .6-1.4l-.1.1.6-2c.1-.4.3-.7.5-1 .5-.5 1.3-.8 2-.7l-.2 8.7c-.2.6-.5 1.2-1 1.8-1.4 2.3-4 4-5 6.4-.4 1.2-.6 2.5-.5 3.8 0 .8.1 1.5.1 2.3v-.1c.1 2 .2 4-1 5.5-.7 1-2 2-2.3 3.2-.1.3-.2.7-.1 1 .1 1 .3 2.2.7 3.2 0 0 0 0 0-.1.2.8.3 1.6.2 2.4-.4 2-3 3.7-2.8 5.6 0 .3 0 .5.1.7.5 1 1.3 1.6 2.3 2 1.5 1 3.3 1.3 5 1 .7-.1 1.3-.3 2-.7l-2.5 5.4s-6.2-4-9.7 4.3c-1 1.7-1.8 3.7-2.2 5.6-.2.8-.4 1.6-.7 2.3a15 15 0 0 1-6.7 6c-7.2 3.3-36 39.3-36.6 48.7-.3 3.6-1 7.3-1.8 10.8a64 64 0 0 0-1.7 25.5l1.8 8c3 9.3 5 26.7 5 26.7l3.3 30.2a86 86 0 0 0 .5 12.5c-3.4 4-17 20-11.8 24.4 4 3.5 11 3 15 2.2a127 127 0 0 0-9.2 32.2c-1 14.5 1.7 33.6 6 41l18.6 26.2s-.7 26 4.4 35.3a103 103 0 0 1 7.2 28.9s4.8 16.5 2.4 22.5 4.4 11-2.7 15-16.3 95-16.3 95V795c.2.1.4.3.6.4v20s-2.6 4.2 8 5l48.6 3.2s22 4.4 31.7 0 27-4.3 24.4-16a33 33 0 0 0-1.4-4.6c-2.8-7.2-7.6-8-16.4-10l-1.4-.3c-9.3-1.6-12.3 2.7-17.5-3-4.5-5-19-10.3-23.8-12l.4-1c-1.4-.2-2.7-1-3.7-1.8l21 1.3s18.7 3.7 27 0 23-3.6 20.7-13.5c-.3-1.3-.7-2.7-1-4-2.4-6-6.4-6.8-14-8.5l-1.2-.2c-8-1.4-10.4 2.3-15-2.5-3.8-4-15.7-8.6-20-10.2 0-2.2-3-5.4-5-8.5-2.2-3.7 2-16.6 2-16.6l2.3-53.7c1-.4 1.8-.7 2.8-.8 0 0 10.6-10 8.2-21a69 69 0 0 1-.8-9.8c3.5-3.2 8.3-8 9.6-11 2.2-4.8 0-28 0-28v-88.7l91.6 9.3 77.2-14.6v-72.4zM386.7 177l-2-.2c.7 0 1.4.2 2 .2z" transform="translate(-95.2 -55)" fill="url(#A)"/><path d="M463.3 408.8c-10 14.3-46 6.7-46 6.7L385.8 386l6.3-13.4 5.4 1.5c18 5.2 74.3 22.7 65.8 34.7z" class="E"/><path d="M397.5 374c-1.2 4.3-4.6 10.7-8 15.4l-3.7-3.5 6.3-13.4 5.4 1.5z" class="B"/><path d="M302 223.4s-25.7 11.4-24.4 39.4l6 53.8c0 0-5.2 42 16.6 53a1156 1156 0 0 0 42.1 19.8l38.4 5.2c4.3 1.5 17.5-21.7 15-25.3s-33.8-11.2-37.8-17.2-13.2-9.8-13.2-9.8-9.6-5.8-10.2-11 2-9 2.5-11.4 2.3-24.4 2.3-24.4 10.8-78.7-37.2-72z" class="D"/><path d="M319 315.4s-35.2 6-31.8 18.2c0 0 12.8-13.3 31.8-18.2zm0 5s-19.4 15.8-15.6 16.6 15.6-16.6 15.6-16.6zm9.5 5.6s-5.2 10.6-2 10 2-10 2-10z" class="B"/><path d="M398.8 375.2l-2-.6c.6-2 .8-3.6.3-4.4-2.4-3.6-33.8-11.2-37.8-17.2s-13.2-9.8-13.2-9.8-9.6-5.8-10.2-11 2-9 2.5-11.4 2.3-24.4 2.3-24.4 10.8-78.7-37.2-72c0 0-25.7 11.4-24.4 39.4l6 53.8c0 0-5.3 42 16.6 53a1156 1156 0 0 0 42.1 19.8l38.4 5.2c1.6.6 4.5-2.4 7.4-6.5l29.5 27.6s36 7.6 46-6.7c8.4-12-47.8-29.5-66-34.7z" class="B"/><path d="M287 118.4c-1 .2-2 .6-2.8 1-1 .8-1 2.3-1.2 3.5-.3 1.7-1 3.4-2 4.8 1 .1 2.3-.1 3.3-.5-.2 1.4-.5 2.7-1 4 1.3 0 2.4-.7 3-1.8.5-1 1-2.3 1.3-3.5.1-.4.3-.7.5-1 1-1 2.6-.6 4-.5 2.4.2 4.7-1 6-3 1.5-2.3 1.6-8-2-8.8-3.8-.6-6 4.6-9.2 5.7z" fill="#965d7b"/><path d="M284.3 120.7l.3-1.5c-1 .8-1 2.2-1.2 3.5a11 11 0 0 1-.6 2.1c.8-1.3 1.3-2.7 1.6-4zm.3 8.3a18 18 0 0 0 1-4c-1 .4-2 .6-3.2.5l-1 2c1 .1 2.3-.1 3.3-.5a18 18 0 0 1-1 4c1.3 0 2.4-.7 3-1.8.2-.5.5-1 .6-1.4a3 3 0 0 1-2.6 1.2zm8.8-6.8c-1.4-.1-3-.6-4 .5-.2.3-.4.6-.5 1l-.2.8c1-.7 2.5-.3 3.8-.2 2.4.2 4.7-1 6-3 .3-.5.5-1 .7-1.6-1.4 1.7-3.5 2.6-5.7 2.4z" class="B"/><path d="M317.2 201l15.3 18.3-2 18.5L312 209l5.2-8z" class="D"/><path d="M332.5 219.3l-2 18.5-18-29.7 4.6-7.2 15.3 18.3z" class="B"/><path d="M340.4 176.2c-5.2 1.5-10 6.6-14.4 12.7-3 4.3-5.5 8.7-7.8 13.3l-4.4 9.6c-1.7 4-2.7 7-2.7 7S271.7 189 278 187c2-.7 5-5.2 7.6-10.8l.3-.7a192 192 0 0 0 4.9-11.5l5.4-14.7s60 22.4 44.3 27z" class="E"/><path d="M364 147.6s9 16.5 21.4 14.3 7.2-9 7.2-9z" class="F"/><path d="M346.4 718.7c-8 3.7-26.3 0-26.3 0l-40.4-2.7c-8.6-.7-6.5-4.2-6.5-4.2v-21.4l42-10.6s16.6 5.7 21 10.6c4.3 4.7 6.8 1 14.5 2.5l1.2.3c7.3 1.7 11.3 2.3 13.6 8.4a28 28 0 0 1 1.1 3.9c2.2 9.7-12.2 9.7-20.2 13.3z" fill="#a36468"/><path d="M365.5 701.5c-1.5 1-3 1.7-4.7 2.4l-16.3 8a38 38 0 0 1-17.6 3.6c-3-.2-6.4-1-9.4-.1-2 .7-3.6 1.7-5.2 3l-32.7-2.2c-8.6-.7-6.5-4.2-6.5-4.2v-2.5c.3 0 .7-.1 1-.1 2 0 4 .3 6 1l13 3.5c.7-2.7 2.5-5 5-6.4a16 16 0 0 1 8.1-1.9c6.7.1 13 3.3 19.8 3.6 2 .2 3.8-.1 5.5-1 1-.5 1.7-1 2.6-1.6 1.4-.7 3-1.2 4.5-1.5a100 100 0 0 0 13-4.2c1.2-.5 2.6-1.3 2.4-2.6-.2-1.7-3-2-3.6-3.5a2 2 0 0 1 .1-1.8l1.2.3c7.3 1.7 11.2 2.3 13.6 8.4z" class="B"/><path d="M337.8 765.5c-9.5 4.3-31 0-31 0l-47.5-3c-10.2-.8-7.7-5-7.7-5v-25.2l49.3-12.5s19.5 6.7 24.8 12.5c5 5.5 8 1.3 17 3l1.4.3c8.6 2 13.3 2.8 16 10a32 32 0 0 1 1.3 4.6c2.5 11.5-14.3 11.4-23.8 15.7z" fill="#a36468"/><path d="M360.3 745.2c-1.8 1-3.6 2-5.6 2.8l-19.2 9.3a45 45 0 0 1-20.7 4.3c-3.7-.3-7.5-1.2-11-.1-2.2 1-4.3 2-6 3.4l-38.4-2.6c-10.2-.8-7.7-5-7.7-5v-3c.4-.1.8-.1 1.2-.1a22 22 0 0 1 7.2 1.1l15.3 4c1-3.2 3-6 6-7.5 3-1.6 6.2-2.3 9.5-2.2 8 .1 15.4 4 23.3 4.2 2.2.2 4.4-.2 6.4-1 1-.6 2-1.3 3-2 1.7-.8 3.5-1.4 5.3-1.8 5.2-1.3 10.2-3 15.2-5 1.4-.6 3-1.6 3-3-.2-2-3.4-2.2-4.2-4-.3-.7-.2-1.4.1-2l1.4.3c8.6 2 13.3 2.7 16 9.8z" class="B"/><g class="F"><use xlink:href="#B"/><path d="M328 436l7.4 10v86.3s2.2 23 0 27.8-13.2 14.3-13.2 14.3l-9.2-47.5 2-50.2z"/></g><use xlink:href="#B" class="B"/><path d="M328 436l7.4 10v86.3s2.2 23 0 27.8-13.2 14.3-13.2 14.3l-9.2-47.5 2-50.2z" class="B"/><path d="M335.3 399.2v46.7l-8.3 36.3-.3 98.3c2.3 10.7-8 20.7-8 20.7s-6 .7-6 5.3-10 18-10 18l.3 26s4.3 48.7-2.3 58 2.3 10.7 2.3 10.7c-8.3 27.3-48.3 21-52 18s0-62 0-62 9-90 16-94 .3-9 2.7-15-2.3-22.3-2.3-22.3-2-19.3-7-28.7-4.3-35-4.3-35l-18.2-26c-4.2-7.3-6.8-26.3-5.8-40.7.7-9.7 5.8-23.8 9-32l2.7-6.4 55.6 14.6z" class="F"/><path d="M340.4 176.2c-5.2 1.5-10 6.6-14.4 12.7h-1c-12.8 0-24.6-6.8-31-18-1.3-2.3-2.4-4.7-3-7l5.4-14.7s60 22.5 44.3 27z" class="B"/><path d="M360.7 151.2c0 15-9.3 28.4-23.4 33.6s-30 1-39.6-10.4-11.3-27.7-4-40.7a35 35 0 0 1 3.8-5.5c2.4-2.8 5-5.2 8.2-7.2 10.6-6.7 24-7.4 35.2-1.8s18.7 16.8 19.6 29.3c0 1 .1 1.8.1 2.6z" class="E"/><path d="M330.6 236.7l-.1 1-16.6-26c-1.7 4-2.7 7-2.7 7S271.7 189 278 187c2-.7 5-5.2 7.6-10.8l.3-.7c3 8.6 19.8 26 26.8 32.8l3.6 3.5c2.6 2.6 13.3 14.2 14.4 25z" class="B"/><path d="M343 325l-2 69-75.5-9c-3-1.4-9.4-2.5-14.5-3.2l-7-.8-3 .7c-4 .7-10.6 1.3-14.6-2.2-5-4.4 8.2-20.3 11.5-24.2l.7-.8-4.5-41.5s-2-17.2-5-26.5a49 49 0 0 1-1.7-8.1c-1-8.4-.5-17 1.7-25.3a55 55 0 0 0 1.8-10.7c.5-9.3 28.8-45 35.8-48.3 3-1.5 5.7-4 7.2-7 .5-1 1-2 1-3 3-13 10.6-7.8 10.6-7.8 1.8 10.2 30.2 37 30.2 37l.6.6c2.8 3 15.3 16.4 14.4 28a34 34 0 0 0 1.9 12.6 214 214 0 0 1 9.9 56z" class="D"/><path d="M303 255.4s-7 17-12.2 19.7 14.8 5.8 12.3-19.7zm5.2 31.8s-16 2-16 5 16-5 16-5zm16.8 19.5s-23.2 49.5-29.7 51 29.8-51 29.8-51zm-9.8-91L296 224l-23.2-35c.5-1 1-2 1-3 3-13 10.6-7.8 10.6-7.8 1.8 10.2 30.2 37 30.2 37z" class="B"/><path d="M316.2 213.7L297 222l-23.2-35c.5-1 1-2 1-3 3-13 10.6-7.8 10.6-7.8 1.8 10.2 30.2 37 30.2 37z" class="D"/><path d="M341 394l-41.7-4.2 36 9.5v11c-1.6 1.4-3 2.2-3.8 1.8-4.2-1.7-38-7.2-38-7.2s-19.7-10-41-22l-1.5-1c-2.5-1.7-4.6-3.8-6.3-6.3-4-5.7-6-13-6.7-20.2a87 87 0 0 1-.5-12.4l1.3-14a460 460 0 0 1-3-54c.3-28 26.5-38 26.5-38 48.3-4.2 33.3 73.8 33.3 73.8L292 335c-.8 2.3-3.5 6-3 11.3s9.6 11.5 9.6 11.5 9 4.2 12.7 10.5c2.7 4.6 20.2 11 30 15.3zm16-265c0 1.6-.3 3.3-1 4.8l-1.8 3.6c-1 2-2.5 4-4.4 5.4-2.3 1.7-5.2 2-8 2.8s-5.6 1.7-7.2 4c-1 1.5-1.4 3.2-1.7 5a11 11 0 0 1-2 4.7c-1 1.4-3 2-4.7 1-.8-.6-1.5-1.4-1.8-2.3-1-2.6-1.4-5.4-2-8.2s-1-5.6-2.8-7.8-4.7-3.7-7.4-2.8c-1.8.7-3.3 2-4 4-.7 1.8-1.2 3.6-1.5 5.5q-2 10.2-4.4 20.2c-.1.3-.2.5-.3.8-.3.3-.6.4-1 .4-2.2.3-4.4-1.3-6.7-1-.2 0-.5.1-.7.1-7.5-13-6-29.3 3.6-40.8h.2c1.5-.5 3-1.4 4-2.5a44 44 0 0 0 4-4.6l.8-1c2.3-2.8 5-5.3 7.8-7.4a8 8 0 0 1 2.7-1.4 7 7 0 0 1 2.5-.1 73 73 0 0 0 10.4.4 67 67 0 0 1 7.3-.7c6.3.2 11.7 4.6 15.7 9.5 2.2 2.5 4 5.4 4.2 8.7z" class="B"/><path d="M289 134.6c-1.4 2.3-4 3.8-4.8 6.3-1.4 3.6 1 8.2-1.2 11.4-.7 1-2 2-2.3 3.2-.7 2 1.2 4.4.7 6.5s-3.3 4-2.6 6a4 4 0 0 0 2.2 2c1.5 1 3.3 1.3 5 1 2.7-.4 4.8-3 7.5-3.3 2.3-.2 4.4 1.4 6.6 1 .4 0 .7-.2 1-.4.2-.2.3-.5.3-.8q2.5-10 4.4-20.2c.3-2 .8-3.8 1.5-5.5.8-1.8 2.2-3.2 4-4 2.7-1 5.7.6 7.4 2.8s2.4 5 2.8 7.8.8 5.6 2 8.2c.3 1 1 1.8 1.8 2.3 1.5 1 3.5.2 4.7-1 1-1.4 1.7-3 2-4.7.3-1.7.8-3.4 1.7-5 1.6-2.4 4.5-3.4 7.2-4s5.7-1 8-2.8c1.8-1.5 3.3-3.3 4.4-5.4a16 16 0 0 0 2.7-8.3c-.1-3.2-2-6-4-8.7-4-5-9.4-9.4-15.7-9.5a62 62 0 0 0-7.3.7c-3.5.2-7 0-10.4-.4-.8-.1-1.7-.1-2.5.1-1 .3-2 .8-2.6 1.4-3 2.2-5.5 4.6-7.8 7.4-1.5 2-3 3.8-4.8 5.6-1 1-2.5 2-4 2.5-1 .3-2 .1-3 .4-3 1-3.3 4.8-4.7 7z" fill="#965d7b"/><path d="M385.4 161.8c-8 1.5-14.6-5-18.3-9.7l-3-4.5 28.6 5.4s5 6.6-7.2 8.8z" class="B"/><g class="B"><path d="M281.5 159c.1-1.3-.1-2.6-.6-3.8 0 .1-.1.2-.1.3-.4 1.3.2 2.7.5 4a3 3 0 0 0 .2-.6zm2.5-16.2v4.2c.1-1.4.1-2.8-.1-4.2zm69.3-9.4c-1 2-2.5 4-4.4 5.4-2.3 1.7-5.2 2-8 2.8s-5.7 1.7-7.2 4c-1 1.5-1.4 3.2-1.7 5s-1 3.4-2 4.8c-1 1.3-3.2 2-4.7 1-.8-.6-1.5-1.4-1.8-2.3-1-2.6-1.4-5.4-2-8.2s-1-5.6-2.8-7.8-4.7-3.7-7.4-2.8c-1.8.7-3.2 2-4 4-.7 1.8-1.2 3.6-1.5 5.5q-2 10.2-4.4 20.2c0 .3-.2.5-.3.8-.3.3-.6.4-1 .4-2.2.3-4.4-1.3-6.6-1-2.8.2-4.8 3-7.5 3.3-1.7.2-3.5-.2-5-1-.7-.3-1.3-.7-1.8-1.3-.5.7-.6 1.5-.4 2.3.4 1 1.2 1.6 2.2 2 1.5 1 3.3 1.3 5 1 2.7-.4 4.8-3 7.5-3.3 2.3-.2 4.4 1.4 6.6 1 .4 0 .7-.2 1-.4.2-.2.3-.5.3-.8q2.5-10 4.4-20.2c.3-2 .8-3.8 1.5-5.5.8-1.8 2.2-3.2 4-4 2.7-1 5.7.6 7.4 2.8s2.4 5 2.8 7.8a29 29 0 0 0 2 8.2c.3 1 1 1.8 1.8 2.3 1.5 1 3.5.2 4.7-1 1-1.4 1.7-3 2-4.7s.8-3.4 1.7-5c1.6-2.4 4.5-3.4 7.2-4s5.7-1 8-2.8c1.8-1.5 3.3-3.3 4.4-5.4 1.5-2.6 3-5.4 2.7-8.3 0-.4-.1-.8-.1-1-.5 2.3-1.4 4.5-2.6 6.5z"/><path d="M356 133.7c2.6 4.6 4 9.6 4.4 15L339 136.2c-7.4-3.3-35-2.8-45.3-2.5a35 35 0 0 1 3.8-5.5 34 34 0 0 1 8.3-7.2c8.3-5.3 18.4-7 28-4.5a36 36 0 0 1 22.5 17.2zm32 24c-4.8 1.5-12.7-1.4-20.8-5.5l-3-4.5 27.5 5.2c1.8 1.2 2.3 3-3.6 4.8z"/></g><path d="M327 99s-26.2-1.5-33.6 12.8l-1.2 12.6-2-.2-.4 8.6 49.3 2.4c9 4 37.5 25 49 21.4s-1-6.7-1-6.7-15.7-6.6-15.7-11.8-4-32.7-44.2-39z" class="F"/><path d="M276.4 567.3s16.8 16.3 24 15c0 0-20.5-1.7-24-15zm-3.4 7.5s1.5 8.4 5.5 7.5-5.5-7.5-5.5-7.5zm26.2 139.7s-23.8 18.5-19.8 19 19.8-19 19.8-19z" class="B"/><path d="M331 347.3l77-12.5v73l-73.2-3.8-3.8-56.5z" class="C"/><path d="M331 347.3l77-12.5v73l-73.2-3.8-3.8-56.5z" class="B"/><path d="M408 334.8l92.3 7-5 63.4-87.2 2.6v-73z" class="C"/><path d="M408 334.8l92.3 7-5 63.4-87.2 2.6v-73z" class="B"/><g class="C"><path d="M436.4 312.6L408 334.8l92.3 7 15-22.8-79-6.4zM303 323l69.3-8.4 35.6 20.2-77 12.5-28-24.3zm121.8 30.7v99.7l-94-9.6v-96.4l94 6.4z"/><path d="M500.3 341.7V439l-75.5 14.5v-99.7l75.5-12z"/></g><path d="M500.3 341.7V439l-75.5 14.5v-99.7l75.5-12z" class="B"/><path d="M303 368.3l28-21 94 6.4L411 377l-108-8.7z" class="C"/><path fill="#fff" d="M303 368.3l28-21 94 6.4L411 377l-108-8.7z" class="B"/><path d="M500.3 341.7l-75.5 12 24.6 22 80.8-13.6-30-20.5z" class="C"/><path d="M500.3 341.7l-75.5 12 24.6 22 80.8-13.6-30-20.5zm-29 102.8l-14 2.7v-20.8l13.2-3.3 1 21.4zm-82.6-8.5v13.7L373 448v-12h15.7zm-20.5 4.3v7.3l-15.7-1.6v-5.7h15.7z" class="B" fill="#fff"/><path d="M415.4 428.7c-10.7 13.8-46.2 4.3-46.2 4.3l-30-31.2 7-13 5.3 1.8c17.7 6.2 73 26.6 64 38.2z" class="B"/><path d="M414.4 426.7c-10.7 13.8-46.2 4.3-46.2 4.3l-30-31.2 7-13 5.3 1.8c17.7 6.2 73 26.6 64 38.2z" class="E"/><path d="M350.5 388.5a59 59 0 0 1-8.8 14.9l-3.6-3.7 7-13 5.3 1.8z" class="B"/><path d="M263.2 233s-26.2 10-26.5 38a460 460 0 0 0 3 54c0 0-7.5 41.8 13.8 53.8l41 22 38 7.3c4.2 1.8 18.7-20.7 16.4-24.5s-33.2-13-36.8-19.2-12.7-10.5-12.7-10.5-9.2-6.3-9.6-11.5 2.4-9 3-11.2 3.6-24.2 3.6-24.2 15-78-33.3-73.8z" class="D"/><path d="M275.2 325.7s-35.5 4-32.7 16.5c0 0 13.5-12.6 32.8-16.5zm0 5s-20 14.8-16.4 15.8 16.4-15.7 16.4-15.7zm9 6s-5.7 10.3-2.5 9.8 2.5-9.8 2.5-9.8z" class="B"/><g class="C"><path d="M653.8 112.4s-38-2.3-33.6 24.4c0 0-1 4.7 3.4 6.8 0 0 .1-2 4-1.3 1.4.2 2.8.3 4 .2 2-.1 3.6-1 5-2h0s10.7-4.4 15-22c0 0 3-3.8 3-4.8l-6.4 2.8s2.2 4.6.5 8.5c0 0-.2-8.3-1.4-8-.2 0-3.3 1.6-3.3 1.6s3.8 8 1 14c0 0 1-10-2-13.3l-4.5 2.6s4.4 8.3 1.4 15c0 0 .8-10.4-2.4-14.5l-4 3.2s4 8.2 1.6 14c0 0-.3-12-2.5-13 0 0-3.6 3.2-4 4.5 0 0 2.8 6 1 9 0 0-1-8-2-8 0 0-3.6 5.4-4 9 .2-3.4 1.2-6.7 3-9.5-2 .4-4 1.4-5.5 2.8 0 0 .5-3.8 6.3-4l3.7-4.3s-5.8-.5-9.2 1c0 0 3-3.6 10.3-2l4-3.3s-7.6-1-10.8.1c0 0 3.7-3.2 12-1l4.4-2.6s-6.5-1.4-10.3-1c0 0 4-2.2 11.6.2l3.2-1.4s-4.7-1-6-1-1.5-.5-1.5-.5c3-.5 6-.2 9 1 0 0 6.8-2.4 6.6-3z"/><path d="M769.2 245.7s-38-2.3-33.6 24.4c0 0-1 4.7 3.4 7 0 0 .1-2 4-1.3 1.4.2 2.8.3 4 .2a10 10 0 0 0 5-2h0s10.7-4.4 15-22c0 0 3-3.8 3-4.8l-6.4 2.7s2.2 4.6.5 8.5c0 0-.2-8.3-1.4-8-.2 0-3.3 1.6-3.3 1.6s3.8 8 1 14c0 0 1-10-2-13.4l-4.5 2.6s4.4 8.3 1.4 15c0 0 .8-10.4-2.4-14.5l-4 3.2s4 8.2 1.6 14c0 0-.3-12-2.5-13 0 0-3.6 3.2-4 4.5 0 0 2.8 6 1 9 0 0-1-8-2-8 0 0-3.6 5.4-4 9 .2-3.4 1.2-6.7 3-9.5-2 .4-4 1.4-5.5 2.8 0 0 .6-3.8 6.4-4l3.7-4.3s-5.8-.5-9.2 1c0 0 3-3.6 10.3-2l4-3.3s-7.6-1-10.8.1c0 0 3.7-3.2 12-1l4.4-2.6s-6.5-1.4-10.3-1c0 0 4-2.2 11.6.2l3-1.4s-4.7-1-6-1-1.5-.5-1.5-.5c3-.5 6-.2 9 1 0 0 6.8-2.4 6.6-3zM538.4 222s8.8-37-18.3-37.2c0 0-4.5-1.7-7.3 2.2 0 0 2 .4.6 4a18 18 0 0 0-1 4c-.2 2 .2 3.7 1.2 5.3h0s2.5 11.3 19 18.4c0 0 3.2 3.7 4.2 3.7l-1.6-6.8s-5 1.4-8.4-1c0 0 8.2 1.2 8.2 0 0-.2-1-3.6-1-3.6s-8.6 2.3-14-1.5c0 0 9.6 2.8 13.5.2l-1.8-5s-9 3-15.2-1.2c0 0 10 2.5 14.7.1l-2.5-4.6s-8.8 2.7-14-.8c0 0 12 1.7 13.3-.2 0 0-2.5-4-3.7-4.8 0 0-6.4 1.8-9.2-.5 0 0 8 .3 8.3-.6 0 0-4.7-4.4-8.2-5.4a21 21 0 0 1 9 4.7 11 11 0 0 0-2-6s3.6 1.2 3 7a25 25 0 0 0 3.6 4.4s1.5-5.6.5-9.3c0 0 3 3.6.2 10.5l2.6 4.5s2.3-7.3 1.7-10.7c0 0 2.5 4.2-1.2 12l2 4.8s2.5-6 2.6-10c0 0 1.5 4.4-2.2 11.4l1 3.3 2-5.8c.4-1.3.8-1.4.8-1.4 0 3-1 6-2.5 8.6 0 0 1.3 7 1.7 7zm-83.2 12.7s-30.5-22.8-41.4 2c0 0-3.3 3.4-1 7.6 0 0 1-1.6 4 1 1 1 2 1.8 3.3 2.4 1.6 1 3.5 1.3 5.4 1h0s11.4 2.2 24.4-10c0 0 4.7-1.5 5-2.4l-7-1.2s-.7 5-4.3 7.3c0 0 4.4-7 3.3-7.6-.2-.1-3.7-.5-3.7-.5s-1.3 8.8-7 12.2c0 0 6.4-7.7 5.6-12.3l-5.2-.3s-1 9.4-7 13.4c0 0 6.4-8.3 6-13.4l-5.2.4s-1 9-6.3 12.5c0 0 6.4-10.3 5-12.3 0 0-4.7.7-6 1.4 0 0-1 6.5-4 8.2 0 0 3.6-7.3 2.8-8 0 0-6 2.5-8.3 5.4 2-2.7 4.7-5 7.8-6.3-2-.8-4-1-6-.6 0 0 2.5-3 7.6.1 0 0 4.7-1.8 5.5-1.6 0 0-4.5-3.6-8.3-4.2 0 0 4.5-1.3 9.7 4l5.2-.5s-5.8-5-9-5.8c0 0 4.8-.6 10.4 5.8l5 .2s-4.6-4.7-8-6.4c0 0 4.6.4 9.6 6.5l3.4.6-4.5-4.3c-1-1-1-1.2-1-1.2 2.8 1.2 5.2 3.2 7 5.7l7 1.2zm101.6-212s-30.5-22.8-41.4 2c0 0-3.3 3.5-1 7.6 0 0 1-1.6 4 1 1 1 2 1.8 3.4 2.4 1.6 1 3.5 1.3 5.4 1h0s11.4 2.2 24.4-10c0 0 4.7-1.5 5-2.4l-7-1.2s-.7 5-4.3 7.3c0 0 4.4-7 3.3-7.6-.2-.1-3.7-.5-3.7-.5s-1.3 8.8-7 12.2c0 0 6.4-7.7 5.6-12.3l-5.2-.3s-1 9.4-7 13.4c0 0 6.4-8.3 6-13.4l-5.2.4s-1 9-6.3 12.5c0 0 6.4-10.3 5-12.3 0 0-4.7.7-6 1.5 0 0-1 6.5-4 8.2 0 0 3.5-7.4 2.8-8 0 0-6 2.5-8.3 5.4 2-2.7 4.7-5 7.8-6.3-2-.8-4-1-6-.6 0 0 2.5-3 7.6.1 0 0 4.7-1.8 5.5-1.6 0 0-4.6-3.6-8.3-4.2 0 0 4.5-1.3 9.7 4l5.2-.5s-5.8-5-9-6c0 0 4.8-.6 10.4 5.8l5 .2s-4.6-4.7-8-6.4c0 0 4.6.4 9.6 6.5l3.4.5-4.5-4.2c-1-1-1-1.2-1-1.2 2.8 1.2 5.2 3.2 7 5.7l7 1zm116.6 29s-12.2-36-35.2-22c0 0-4.7 1-5 5.7 0 0 2-.7 2.7 3a18 18 0 0 0 1.4 3.9c.8 1.7 2.2 3 3.8 4h0s8 8.3 26 5.5c0 0 4.7 1.4 5.5 1l-5-5s-3.5 3.8-7.7 3.6c0 0 7.6-3.3 7-4.4-.1-.2-2.7-2.5-2.7-2.5s-6 6.5-12.6 6c0 0 9.6-2.7 11.6-7l-4-3.2s-6 7.2-13.5 7c0 0 10-3.2 12.5-7.6l-4.5-2.6s-6 7-12.2 6.7c0 0 11-5 11.2-7.2 0 0-4.3-2-5.7-2.2 0 0-4.5 5-8 4.4 0 0 7-4 6.8-5 0 0-6.3-1.3-9.8-.2a20 20 0 0 1 10-.7c-1-1.8-2.8-3.2-4.7-4 0 0 3.7-1 6.2 4.3 0 0 5 1.2 5.4 1.8 0 0-1.7-5.5-4.5-8.2 0 0 4.5 1.5 5.7 8.8l4.6 2.5s-2-7.4-4.2-10c0 0 4.3 2.2 5.3 10.7l4 3s-1-6.5-3-10c0 0 3.6 3 4.2 10.8l2.5 2.4-1.3-6c-.4-1.3-.1-1.4-.1-1.4 1.6 2.6 2.4 5.6 2.4 8.6l5.2 5zm-79.6 1.8S556 49 559 76c0 0-1 4.7 3 7 0 0 .2-2 4-1 1.4.3 2.7.4 4 .4 2 0 3.7-.7 5.2-1.8h0s11-4 16-21c0 0 3.3-3.7 3.2-4.6l-6.4 2s2 4.7 0 8.5c0 0 .2-8.3-1-8.2-.2 0-3.4 1.4-3.4 1.4s3.4 8.3.2 14c0 0 1.6-10-1.4-13.4l-4.6 2.4s4 8.6.6 15.2c0 0 1.3-10.4-1.6-14.6l-4.2 3s3.7 8.4 1 14c0 0 .3-12-1.8-13.2 0 0-3.7 3-4.4 4.2 0 0 2.5 6 .6 9.2 0 0-.7-8-1.6-8.2 0 0-3.8 5.2-4.4 8.8a19 19 0 0 1 3.6-9.4c-2 .3-4 1.2-5.6 2.5 0 0 .7-3.7 6.5-3.8 0 0 3-4 4-4 0 0-5.7-.8-9.3.6 0 0 3.3-3.4 10.4-1.4l4.2-3s-7.8-1.6-11-.6c0 0 4-3 12-.2l4.5-2.4S575 56.7 571 57c0 0 4.2-2 11.6.8l3.2-1.2-6-1.4c-1.4-.2-1.4-.6-1.4-.6 3-.3 6 .2 8.8 1.4 0 0 6.7-2.2 6.7-2.6zm331.6 294.2s-38-4.2-34.7 22.6c0 0-1 4.7 3 7 0 0 .2-2 4-1 1.4.3 2.7.4 4 .4 2 0 3.7-.7 5-1.8h0s11-4 16-21c0 0 3.3-3.7 3.2-4.6l-6.5 2.4s2 4.7 0 8.5c0 0 .2-8.3-1-8.2-.2 0-3.4 1.4-3.4 1.4s3.4 8.3.2 14c0 0 1.6-10-1.4-13.4l-4.6 2.4s4 8.5.7 15.2c0 0 1.3-10.4-1.6-14.6l-4.2 3s3.7 8.4 1 14c0 0 .3-12-1.8-13.2 0 0-3.7 3-4.4 4.2 0 0 2.5 6 .6 9.2 0 0-.7-8-1.5-8.2 0 0-3.8 5.2-4.4 8.8a19 19 0 0 1 3.6-9.4c-2 .3-4 1.2-5.6 2.6 0 0 .7-3.8 6.5-3.8 0 0 3.2-4 4-4 0 0-5.7-.8-9.3.6 0 0 3.3-3.4 10.4-1.4l4.2-3s-7.5-1.4-10.8-.4c0 0 4-3 12-.3l4.5-2.4s-6.4-1.7-10.3-1.4c0 0 4.2-2 11.6.8l3.2-1.3-6-1.4c-1.4-.2-1.4-.6-1.4-.6 3-.4 6 .1 8.8 1.4 0 0 6.8-2.2 6.7-2.6zm58 35.5s-38-4.2-34.7 22.6c0 0-1 4.7 3 7 0 0 .2-2 4-1 1.3.3 2.7.4 4 .4 2 0 3.7-.7 5-1.8h0s11-4 16-21c0 0 3.3-3.6 3.2-4.6l-6.6 2.4s2 4.7 0 8.5c0 0 .2-8.3-1-8.2-.2 0-3.4 1.4-3.4 1.4s3.4 8.3.2 14c0 0 1.6-10-1.4-13.4l-4.7 2.4s4 8.5.7 15.2c0 0 1.3-10.4-1.6-14.6l-4.2 3s3.7 8.4 1 14c0 0 .3-12-1.8-13.2 0 0-3.7 3-4.4 4.2 0 0 2.5 6 .6 9.2 0 0-.7-8-1.6-8.2 0 0-3.8 5.2-4.4 8.8a20 20 0 0 1 3.5-9.4c-2 .3-4 1.2-5.6 2.6 0 0 .8-3.8 6.5-3.8 0 0 3.2-4 4-4 0 0-5.7-.8-9.3.6 0 0 3.3-3.4 10.4-1.4l4.2-3s-7.5-1.4-10.8-.4c0 0 4-3 12-.2l4.5-2.4s-6.4-1.7-10.3-1.4c0 0 4.2-2 11.6.8l3.2-1.2-6-1.4c-1.4-.2-1.4-.6-1.4-.6 3-.3 6 .2 8.8 1.4 0 0 6.8-2.2 6.7-2.6zM854.7 84.8s-30.5-22.8-41.4 2c0 0-3.3 3.4-1 7.6 0 0 1-1.6 4 1 1 1 2 1.8 3.3 2.4 1.6 1 3.5 1.3 5.4 1h0s11.4 2.2 24.5-10c0 0 4.7-1.5 5-2.4l-7-1.2s-.7 5-4.3 7.3c0 0 4.4-7 3.3-7.6-.2-.1-3.7-.5-3.7-.5s-1.3 8.8-7 12.2c0 0 6.4-7.7 5.6-12.3l-5.2-.3s-1 9.4-7 13.4c0 0 6.4-8.3 6-13.4l-5.2.4s-1 9-6.3 12.5c0 0 6.4-10.3 5-12.3 0 0-4.7.7-6 1.4 0 0-1 6.5-4 8.2 0 0 3.5-7.3 2.8-8 0 0-6 2.5-8.3 5.4 2-2.7 4.7-5 7.8-6.3-2-.8-4-1-6-.6 0 0 2.6-3 7.6.1 0 0 4.7-1.8 5.5-1.6 0 0-4.6-3.6-8.3-4.2 0 0 4.5-1.3 9.7 4l5.2-.5s-5.8-5-9-5.8c0 0 4.8-.6 10.4 5.8l5 .2s-4.6-4.7-8-6.4c0 0 4.6.4 9.6 6.5l3.4.6-4.5-4.3c-1-1-1-1.2-1-1.2 2.8 1.2 5.2 3.2 7 5.7 0 0 7 1.6 7 1zm23.6 165S867.8 213 844 226.2c0 0-4.7.7-5.3 5.5 0 0 2-.6 2.5 3.2.2 1.4.6 2.7 1.2 4 .7 1.7 2 3.2 3.7 4h0s7.7 8.6 25.6 6.7c0 0 4.6 1.6 5.5 1.2l-4.7-5s-3.6 3.6-7.8 3.3c0 0 7.8-3 7.2-4-.1-.2-2.6-2.6-2.6-2.6s-6.3 6.3-12.8 5.5c0 0 9.7-2.3 12-6.4l-4-3.4s-6.4 7-13.8 6.4c0 0 10-2.8 13-7l-4.4-2.8s-6.4 6.6-12.5 6c0 0 11.3-4.4 11.5-6.7 0 0-4.2-2.3-5.6-2.4 0 0-4.7 4.7-8.2 4 0 0 7.3-3.7 7-4.6 0 0-6.2-1.6-9.8-.7a20 20 0 0 1 10-.3c-1-1.8-2.6-3.3-4.5-4.2 0 0 3.8-.8 6 4.6a25 25 0 0 0 5.3 2.1s-1.5-5.6-4-8.4c0 0 4.4 1.7 5.3 9l4.5 2.7s-1.6-7.5-3.7-10c0 0 4.2 2.4 4.8 11l4 3.3s-1-6.6-2.6-10c0 0 3.4 3 3.7 11l2.4 2.5-1-6c-.3-1.4 0-1.6 0-1.6 1.5 2.7 2.2 5.7 2 8.7 0 0 4.6 5.4 5 5zM644 332.2s-20.4-32.2-39.4-13c0 0-4.3 2-3.6 6.8 0 0 1.6-1 3.4 2.4.6 1.2 1.4 2.4 2.3 3.5 1.2 1.4 2.8 2.5 4.6 3h0s10 6 26.5-.8c0 0 5 .3 5.6-.4l-6-3.6s-2.5 4.5-6.6 5.3c0 0 6.6-5 5.7-6-.2-.2-3.2-1.8-3.2-1.8s-4.3 7.8-10.7 9c0 0 8.7-5 9.6-9.5l-4.8-2s-4.2 8.5-11.4 10c0 0 9-5.5 10.3-10.4l-5-1.4s-4.2 8.2-10.3 9.4c0 0 9.6-7.4 9-9.7 0 0-4.7-1-6-.7 0 0-3.2 5.8-6.7 6.2 0 0 6-5.6 5.4-6.4 0 0-6.4.3-9.6 2 3-1.8 6-3 9.5-3-1.5-1.4-3.4-2.4-5.5-2.8 0 0 3.4-1.8 7 2.7 0 0 5 0 5.7.5 0 0-3-5-6.3-7 0 0 4.7.4 7.6 7.2l5 1.3s-3.6-6.7-6.4-8.7c0 0 4.7 1 7.7 9l4.7 2s-2.7-6-5.3-9c0 0 4.2 2 6.7 9.5l3 1.7-2.7-5.6c-.7-1.2-.4-1.5-.4-1.5 2.2 2 3.7 4.8 4.4 7.8 0 0 6 4 6.3 3.6z" class="B"/><path d="M778 167.8s-19.4-32.8-39-14c0 0-4.4 2-3.8 6.6 0 0 1.7-1 3.3 2.5l2 3.5c1 1.5 2.8 2.5 4.6 3h0s9.6 6.4 26.5 0c0 0 5 .4 5.6-.2l-6-3.8s-2.6 4.4-6.8 5c0 0 6.8-4.8 6-5.7-.2-.2-3.2-2-3.2-2s-4.6 7.6-11 8.6c0 0 8.8-4.7 10-9.2l-4.7-2.2s-4.4 8.3-11.7 9.7c0 0 9-5.2 10.7-10l-5-1.6s-4.5 8-10.6 9c0 0 10-7 9.4-9.4 0 0-4.6-1.2-6-1 0 0-3.4 5.7-7 6 0 0 6-5.4 5.6-6.2 0 0-6.4 0-9.7 1.8 3-1.8 6.2-2.7 9.6-2.8-1.5-1.5-3.4-2.5-5.4-3 0 0 3.4-1.7 7 3 0 0 5 .2 5.7.7 0 0-2.8-5-6-7 0 0 4.7.5 7.4 7.4l5 1.5s-3.4-7-6-9c0 0 4.7 1.3 7.4 9.4l4.6 2.2s-2.5-6-5-9c0 0 4 2 6.4 9.7l3 1.8-2.5-5.7c-.7-1.2-.4-1.5-.4-1.5 2 2.2 3.5 5 4.2 8l6 3.7zm-122.8 69s1-38-25.5-32.7c0 0-4.7-.7-6.7 3.6 0 0 2 0 1.4 4-.2 1.4-.2 2.8-.1 4 .2 2 1 3.6 2.3 5h0s4.8 10.5 22.4 14c0 0 4 3 5 2.8l-3-6.3s-4.5 2.3-8.5.8c0 0 8.3-.5 8-1.7 0-.2-1.7-3.3-1.7-3.3s-8 4-14 1.4c0 0 10 .8 13.3-2.5l-2.8-4.4s-8.2 4.7-15 2c0 0 10.5.4 14.4-3l-3.3-4s-8 4.4-13.8 2c0 0 12-.7 13-3 0 0-3.3-3.5-4.6-4 0 0-6 3-9 1.4 0 0 8-1.3 8-2.2 0 0-5.5-3.4-9.2-3.6 3.4.1 6.7 1 9.7 2.8-.5-2-1.5-4-3-5.4 0 0 3.8.4 4.3 6.2 0 0 4.2 2.8 4.4 3.6 0 0 .3-5.8-1.4-9.2 0 0 3.7 3 2.3 10.2l3.4 4s.8-7.6-.5-10.8c0 0 3.3 3.6 1.3 11.8l2.8 4.3s1.2-6.5.5-10.3c0 0 2.3 4 .2 11.6l1.5 3 1-6.2c.1-1.4.5-1.5.5-1.5.6 3 .4 6-.7 9 0 0 2.7 6.6 3 6.5z"/><ellipse cx="699" cy="716.3" rx="26.9" ry="4.6" class="B"/><ellipse cx="600.8" cy="785.4" rx="26.9" ry="4.6" class="B"/><ellipse cx="93.1" cy="750" rx="26.9" ry="4.6" class="B"/><ellipse cx="805.1" cy="780.8" rx="26.9" ry="4.6" class="B"/><ellipse cx="833.1" cy="723.1" rx="40.2" ry="6.8"/><path d="M849.8 712c1.8-1.5 3.2-3.5 3.8-5.8.5-2.3-.5-5-2.7-6-2.5-1-5 .8-7 2.5s-4.3 3.7-7 3.3c2.7-2.5 4-6.2 3.2-9.8-.1-.7-.4-1.4-1-2-1.4-1.5-3.8-.8-5.5.3-5.2 3.7-6.6 10.7-6.7 17-.5-2.3-.1-4.7-.1-7s-.7-5-2.6-6.2c-1.2-.7-2.6-1-4-1-2.3-.1-5 .1-6.5 2-2 2-1.5 5.7.3 8s4.4 3.8 6.8 5.4c2 1.2 3.6 2.7 4.8 4.6.1.3.3.5.4.8h14.7c3.3-1.7 6.3-3.7 9-6.2z"/></g><path d="M75 728.8s15.3-.5 20-3.8 23.6-7.2 24.8-2 23 26.3 5.7 26.4-40.3-2.7-45-5.5-5.6-15.2-5.6-15.2z" fill="#a8a8a8"/><path d="M126 747.7c-17.3.1-40.3-2.7-45-5.5-3.5-2-5-9.8-5.4-13.4H75s1 12.4 5.6 15.2 27.6 5.7 45 5.5c5 0 6.7-1.8 6.6-4.5-.7 1.6-2.6 2.6-6.3 2.6z" opacity=".2"/></svg>