<svg xmlns="http://www.w3.org/2000/svg" xmlns:xlink="http://www.w3.org/1999/xlink" width="1022.8" height="813.2"><style><![CDATA[.B{opacity:.1}.C{fill:#fed68d}.D{fill:#be6f72}.E{fill:#e7c7ca}.F{fill:#d5d6db}.G{fill:#4b4b5b}.H{fill:#3a3768}.I{fill:#3e373a}]]></style><defs><linearGradient id="A" x1="635.2" y1="545.3" x2="635.2" y2="43.4" gradientUnits="userSpaceOnUse"><stop offset="0" stop-color="gray" stop-opacity=".3"/><stop offset=".5" stop-color="gray" stop-opacity=".1"/><stop offset="1" stop-color="gray" stop-opacity=".1"/></linearGradient><path id="B" d="M472.4 363.2s-11.7 12.8-7.3 15.2 32.3 46 32.3 46 92 11.3 109.3-5.7 17-47.4 17-47.4-14 3-15.5 1.4-10-9.5-10-9.5-118-7.2-126 0z"/><path id="C" d="M603 51c-.6-2-1.4-4.3-3-5.7-1.6-1-3.4-2-5.3-2.2-4.6-1.2-9.2-2-14-2.7-.7-2.2-1.7-4.3-3-6.2-9.8-13.8-24.3-27-41.4-29.8-9-1.5-19.3-.2-25 7-3 4-4.5 9-7.7 12.8-6 7.4-17 8.3-24.8 14-4 3-7 7.3-10 11.6-3.2 4.6-6.4 9.3-7.4 14.8-2 11 5.2 21.3 6.5 32.3 3 24.6-23.4 46.5-18.4 70.8 3 14.2 16 24 29.5 29.2 4.8 1.8 10.2 3.6 12.4 8.2 1 2 1.2 4.3 2 6.3 3.2 6.7 13.6 7 19 2s7.3-12.8 8-20.3c2.7-32.4-10.3-64.3-8.8-96.8.5-9.8 3.2-21 12-25.4 11.8-6 26 4 39 2 6.2 15 7.5 31.5 3.7 47.3-2 8.6-5.7 17-6 26-.4 13.6 7 26 13.2 38 1.4 2.2 2.3 4.7 2.7 7.3.1 2.6-.4 5.2-1.4 7.7-3.6 9.6-9.7 18.5-10.4 28.8-.2 1.2.1 2.4.8 3.4.7.7 1.6 1 2.6 1.2 10.8 1.8 20-7.7 25.4-17.3a81 81 0 0 0 10-34.5c1-20.4-6.2-40.4-5.8-60.8.5-23.2 11-46.5 5-68.8z"/><path id="D" d="M445.2 201.8l17.7-16s68.6-4.5 71.5 18.8c0 0 24.3-27.7 75.5-21.5l21.6 17.2-59.8 26.3-58 20.2-42.8-19.2z"/><path id="E" d="M549.7 215.7c-9 2-18.2-.3-25-6.3l3.6 93.3s8.5 9.2 21.5 7z"/></defs><g class="C"><path d="M600 137.4c-64.7-2.2-126.4-23-185.2-46L234.3 31c-40.6-7.8-87-9-119.8 13-31.5 21-41.7 57.2-47.2 90.7-4 25.3-6.5 51.8 4.8 75.5 7.8 16.4 21.7 30.2 31.4 46C137 311 113.2 378.4 77 432l-50 75.7C14 534.2 8 564.8 19.4 592c11.4 27 38.5 47.2 68 61.5 59.7 29 130 37.2 198.6 42 151.8 10.4 304.5 6 456.7 1.4 56.3-1.7 113-3.4 168.3-12 30.8-4.8 62.5-12.5 85-31 28.4-23.5 35.4-63.4 16.4-93-32-49.5-120-61.8-142.3-115-12.3-29.2.3-61.8 18.2-89 38.2-58.2 102.3-109.2 105.7-175.7 2.3-45.7-28.5-91.4-76-113-50-22.7-119.2-20-156 17.6-38 38.6-104.6 53.4-161.7 51.5z" class="B"/><path d="M435.5 690.5l-342.3-1.7-34-79.8 120.3-8.7-21-87.5 238-30.8-207.6-84L555 457.8l-20.2 136.5-28.8 75-70.5 21.2z"/><path d="M98.4 655.4s21-3.4 33.6 11.5c0 0-9.2 7.3-29-2.8zm-2.2-.4s-13.4 16.5-6.8 35c0 0 11-4.4 12-26.6zm-12-27s8.4-15.4 42 6.2c0 0-4.5 10.4-19.3 9.5S88 636 84.2 628zm-2.2-1s-17.4-2-19 38c0 0 11 2.3 19-10.3s4.6-19.7.2-27.6zm-10-32s9.8-27.2 45.4-7.8c0 0-8 25-41.7 17zm-11-40.6s18.5-27.4 51.2-2c0 0-11.5 25.8-48.4 11.8zm-4-38.6s21.6-25.2 54 0c0 0-20.4 22-54 6.4zm-3.3-37.5s21.8-26.3 53-1.4c0 0-24.6 23.2-53 7.6zm2-33.3s23-34 52-11c0 0-24.6 29-52 17.4zm5.4-39s24.4-33.6 52.6-7.8c0 0-28.8 29-52.6 14zm8-34.8s28.8-31.6 54-19c0 0-30 33.5-55.3 27.4zm10-33s33.3-38.7 52.6-25.8c0 0-24.5 30-55 33zM93.7 300s29-31.6 50.4-23.7c0 0-25 32.8-54.3 33.6zm13.3-35.8s32.2-30.2 46.2-25c0 0-23.2 33.6-47.6 31.6zm12.7-33s27.7-36 42.8-33.3c0 0-16.8 32.2-42.8 37zm14-44.6s24.5-27.7 37.7-27.6c0 0-19.3 37-38.8 36.7z"/><path d="M142 157l23.7-57.7s1.2 52-26.7 68.4zm9.6-63.6l1.4-52s17 40-1.6 73.4zM71 594.4s-24.5-15.2-40.4 22c0 0 21.8 14.5 43.3-12.5zM60 553s-30-13.7-44.7 25c0 0 23.3 16 47.4-15.3zm-4.4-35s-21.6-25-54 0a46 46 0 0 0 54 6.4zM53 478.3S31 452 0 477c0 0 24.6 23.2 53 7.6zm2.6-32.3S40.3 408 7 424.3c0 0 18 33.7 47.3 28zm7.4-40.2S47.6 367.2 14 385c0 0 20.7 35.4 47.5 26.7z"/><path d="M72.3 371.4s-6-42.3-34-46c0 0 6 44.6 30.2 53.8zm7.7-33s-2.3-51-25.5-52.8c0 0 .8 38.7 23 60zm16-39.7s-7-42.4-29-47.6c0 0 2.7 41 26.8 58zm13.5-34s-.2-44.2-13.7-50.7c0 0-8.4 40 9.8 56.3zm11.3-34s-2-45.5-16-52c0 0-4.8 36 13.8 55zm15-40.4s-.1-37-10-45.7c0 0-10 40.5 4.8 53zm5-35L131 93.6s-13 50.4 10.3 72.7zm2-61.2l-24.4-46s2.7 43.4 34 65zm3-12.3S122 23 111.5 18.2c0 0 33.6 17 36 62z"/></g><g fill="#444053"><path d="M132.6 196l-1.6-.5c19.8-64.7 24.8-106 14-116.3l1-1.2c11.5 11 6.8 51.7-13.5 118z"/><path d="M78 347.6l-2.4-1L134 191.3 84.6 329.8c-2.4 5.8-4.6 11.8-6.7 17.8z"/><path d="M128 704a327 327 0 0 1-54.9-98.4 364 364 0 0 1-21.7-112.8c-1.5-48 8.6-102 26-150.7l2 2.2c-38.8 109.6-23.4 203.5-3 260 22.2 61.3 54 97 54.3 97.5z"/></g><path d="M630.7 627s-22.7 27.7-4.7 69.5l-198.4 82-8-35 5.4-68.3z" class="F"/><g class="C"><path d="M59.2 609l250.5-45.7 332 53-206.2 74.2L59.2 609z"/><path d="M59.2 609s-23.4 44.4 3.6 85.4L434.2 775s-23-35.4 1.2-84.4z"/></g><path d="M59.2 609s-23.4 44.4 3.6 85.4L434.2 775s-23-35.4 1.2-84.4z" class="B"/><path d="M70.2 624.4s-13.4 32.5 0 53.5" class="B"/><path d="M434.2 775l207.4-88.5s11.6 2.5 4 11-207.5 86-207.5 86l-375.5-89z" class="C"/><path d="M434.2 775l207.4-88.5s11.6 2.5 4 11-207.5 86-207.5 86l-375.5-89zm-17-75.6s-20 24 0 60m7-30.4l90-29-89.7 30zm0 8l108-40-107.7 41zm.7 9.5l124-49.7-123.6 50.6zm1.4 8.5L567 692.5l-140 63.3zm1 4L582 692.5 428 760zm2.3 6.8l185-79L430 766.6z" class="B"/><path fill="#fff" opacity=".3" d="M152.2 614l176-37 107.2 20.5L291.2 644l-139-30z"/><path d="M641.6 616.3s9 3.7 3.8 9.3-210 65-210 65z" class="C"/><path d="M730 530.8s-22.7 27.7-4.7 69.5L527 682.4l-8-35 5.4-44.2V579z" class="F"/><g class="H"><path d="M158.5 513L409 467.2l332 53-206.2 74.2L158.5 513z"/><path d="M158.4 513s-23.4 44.4 3.6 85.4l371.5 80.5s-23-35.4 1.2-84.4z"/></g><path d="M158.4 513s-23.4 44.4 3.6 85.4l371.5 80.5s-23-35.4 1.2-84.4L417.2 569z" class="B"/><path d="M169.5 528.3s-13.4 32.5 0 53.5" class="B"/><path d="M533.5 678.8L741 590.3s11.6 2.5 4 11-207.5 86-207.5 86l-375.5-89z" class="H"/><path d="M533.5 678.8L741 590.3s11.6 2.5 4 11-207.5 86-207.5 86l-375.5-89zm-17-75.5s-20 24 0 60m7-30.5l90-29-89.7 30zm0 8l108-40-107.7 41zm.6 9.5l124-49.7-123.6 50.6zm1.5 8.4l140.5-62.4-140 63.3zm1 4l154.5-66.4-154 67.3zm2.2 7l185-79-184.7 79.8z" class="B"/><path fill="#fff" opacity=".5" d="M251.5 517.8l176-37 107.2 20.5-144.2 46.5-139-30z"/><path d="M741 520s9 3.7 3.8 9.3-210 65-210 65z" class="H"/><path d="M739.4 420.7s-22.7 49.7-4.7 91.5l-198.3 60.2-8-35 5.4-68.3z" class="F"/><g class="C"><path d="M168 403l250.5-45.7 332 53-206.2 74.2L168 403z"/><path d="M168 402.8s-23.5 44.4 3.5 85.4L543 568.7s-23-35.4 1.2-84.4z"/></g><path d="M168 402.8s-23.5 44.4 3.5 85.4L543 568.7s-23-35.4 1.2-84.4z" class="B"/><path d="M179 418.2s-13.4 32.5 0 53.5" class="B"/><path d="M543 568.7l207.4-66.5s11.6 2.5 4 11-207.5 64-207.5 64l-375.5-89z" class="C"/><path d="M543 568.7l207.4-66.5s11.6 2.5 4 11-207.5 64-207.5 64l-375.5-89zm-17-75.5s-20 24 0 60m7-30.4l90-29-89.7 30zm0 8l108-40-107.7 41zm.6 9.5l124-49.7L534 541.2zm1.4 8.4l140.5-62.4-140 63.3zm1.2 4l154.5-66.4-154 67.3zm2.3 7l185-79-184.5 80z" class="B"/><path fill="#fff" opacity=".3" d="M261 407.7l176-37 107.2 20.5L400 437.7l-139-30z"/><g class="C"><path d="M750.4 410s9 3.7 3.8 9.3-210 65-210 65zm-440-303.5s-38-2.3-33.6 24.4c0 0-1 4.7 3.4 6.8 0 0 .1-2 4-1.3a17 17 0 0 0 4.1.2c2-.1 3.6-1 5-2h0s10.7-4.4 14.8-22c0 0 3-3.8 3-4.8l-6.4 2.7s2.2 4.6.5 8.5c0 0-.2-8.3-1.5-8-.2 0-3.3 1.6-3.3 1.6s3.8 8 1 14c0 0 1-10-2-13.3L295 116s4.4 8.3 1.4 15c0 0 .8-10.4-2.4-14.5l-4 3.2s4.2 8.2 1.6 13.8c0 0-.3-12-2.5-13 0 0-3.6 3.2-4 4.5 0 0 2.8 6 1 9 0 0-1-8-2-8 0 0-3.6 5.4-4 9 .2-3.4 1.2-6.7 3-9.5-2 .4-4 1.4-5.5 2.8 0 0 .5-3.8 6.3-4l3.7-4.3s-5.8-.5-9.3 1c0 0 3-3.6 10.3-2l4-3.3s-7.6-1-10.8.1c0 0 3.7-3.2 12-1l4.4-2.6s-6.5-1.4-10.3-1c0 0 4-2.2 11.6.2l3-1.4s-4.7-1-6-1-1.5-.5-1.5-.5c3-.5 6-.1 9 1 0 0 6.8-2.4 6.6-3z"/><path d="M845 216s-38-2.3-33.6 24.4c0 0-1 4.7 3.4 7 0 0 .1-2 4-1.3 1.4.2 2.8.3 4 .2a10 10 0 0 0 5-2h0s10.7-4.4 14.8-22c0 0 3-3.8 3-4.8l-6.4 2.7s2.2 4.6.5 8.5c0 0-.2-8.3-1.4-8-.2 0-3.3 1.6-3.3 1.6s3.8 8 1 14c0 0 1-10-2-13.4l-4.5 2.6s4.4 8.3 1.4 15c0 0 .8-10.4-2.4-14.5l-4 3.2s4 8.2 1.6 13.8c0 0-.3-12-2.5-13 0 0-3.6 3.2-4 4.5 0 0 2.8 6 1 9 0 0-1-8-2-8 0 0-3.6 5.4-4 9 .2-3.4 1.2-6.7 3-9.5-2 .4-4 1.4-5.5 2.8 0 0 .6-3.8 6.3-4l3.7-4.3s-5.8-.5-9.3 1c0 0 3-3.6 10.3-2l4-3.3s-7.6-1-10.8.1c0 0 3.7-3.2 12-1l4.4-2.6s-6.5-1.4-10.3-1c0 0 4-2.2 11.6.2l3-1.4s-4.7-1-6-1-1.5-.5-1.5-.5c3-.5 6-.2 9 1 0 0 6.8-2.4 6.6-3zm-470.6 55.2S358 237 336.8 253.8c0 0-4.6 1.5-4.3 6.3 0 0 1.8-1 3 2.8a18 18 0 0 0 1.8 3.7c1 1.6 2.5 2.8 4.3 3.4h0s9 7.2 26.4 2.3c0 0 4.8.8 5.6.3l-5.5-4.3s-3 4.2-7.2 4.5c0 0 7.2-4.2 6.4-5.2-.2-.2-3-2-3-2s-5.2 7.2-11.7 7.6c0 0 9.2-4 10.6-8.4l-4.5-2.7s-5 8-12.5 8.6c0 0 9.5-4.4 11.5-9l-4.8-2s-5.2 7.6-11.3 8.2c0 0 10.4-6.2 10.2-8.6 0 0-4.5-1.6-6-1.4 0 0-3.8 5.4-7.4 5.4 0 0 6.5-5 6-5.7 0 0-6.4-.5-9.8 1 3-1.5 6.4-2.2 9.8-2-1.3-1.6-3-2.8-5-3.4 0 0 3.6-1.4 6.7 3.5 0 0 5 .6 5.6 1.2 0 0-2.4-5.3-5.4-7.6 0 0 4.6 1 6.7 8l5 2s-2.8-7-5.4-9.4c0 0 4.6 1.7 6.6 10l4.4 2.6s-2-6.3-4.2-9.4c0 0 4 2.5 5.5 10.2l2.8 2-2-6c-.5-1.3-.2-1.5-.2-1.5 2 2.4 3 5.2 3.5 8.3 0 0 5.3 4.6 5.7 4.3zm383.8-103.6s-16.5-34.3-37.6-17.4c0 0-4.5 1.5-4.3 6.3 0 0 1.8-1 3 2.8.5 1.3 1 2.6 2 3.7 1 1.6 2.5 2.8 4.3 3.4h0s9 7.2 26.4 2.3c0 0 4.8.8 5.6.2l-5.5-4.3s-3 4.2-7.2 4.6c0 0 7-4.2 6.4-5.2-.2-.2-3-2-3-2s-5.2 7.2-11.7 7.6c0 0 9.2-4 10.6-8.3l-4.6-2.6s-5 8-12.5 8.6c0 0 9.5-4.4 11.5-9l-4.8-2s-5.2 7.6-11.3 8.2c0 0 10.4-6.2 10.2-8.6 0 0-4.5-1.6-6-1.4 0 0-3.8 5.4-7.4 5.4 0 0 6.5-5 6-5.7 0 0-6.4-.5-9.8 1 3-1.5 6.4-2.2 9.8-2-1.3-1.6-3-2.8-5-3.4 0 0 3.6-1.4 6.7 3.5 0 0 5 .6 5.6 1.2 0 0-2.4-5.3-5.4-7.6 0 0 4.6 1 6.7 8l5 2s-2.8-7-5.4-9.4c0 0 4.6 1.7 6.5 10l4.4 2.6s-2-6.3-4.3-9.4c0 0 4 2.5 5.5 10.2l2.8 2-2-6c-.5-1.3-.2-1.5-.2-1.5 2 2.4 3 5.2 3.5 8.3a40 40 0 0 0 5.7 4.2zM811 337.4S794.5 303 773.4 320c0 0-4.5 1.5-4.3 6.3 0 0 1.8-1 3 2.8.5 1.3 1 2.6 1.8 3.7 1 1.6 2.5 2.8 4.3 3.4h0s9 7.2 26.4 2.3c0 0 4.8.8 5.6.2l-5.5-4.3s-3 4.2-7.2 4.6c0 0 7-4.2 6.4-5.2-.2-.2-3-2-3-2s-5.2 7.2-11.7 7.6c0 0 9.2-4 10.6-8.4l-4.5-2.7s-5 8-12.5 8.6c0 0 9.5-4.4 11.5-9l-4.8-2s-5 7.6-11.3 8.2c0 0 10.4-6.2 10.2-8.6 0 0-4.5-1.6-6-1.4 0 0-3.8 5.4-7.4 5.4 0 0 6.5-5 6-5.7 0 0-6.4-.5-9.8 1 3-1.5 6.4-2.2 9.8-2-1.3-1.6-3-2.8-5-3.4 0 0 3.6-1.4 6.7 3.5 0 0 5 .6 5.6 1.2 0 0-2.4-5.3-5.4-7.6 0 0 4.6 1 6.7 8l4.8 2s-2.8-7-5.4-9.4c0 0 4.6 1.7 6.5 10l4.4 2.6s-2-6.3-4.3-9.4c0 0 4 2.5 5.5 10.2l2.8 2-2-6c-.5-1.3-.2-1.5-.2-1.5 2 2.4 3 5.2 3.5 8.3 0 0 5.4 4.6 5.8 4.3z" class="B"/><ellipse cx="202" cy="781.6" rx="23" ry="2.6" class="B"/><ellipse cx="51.2" cy="737.9" rx="23" ry="2.6" class="B"/><ellipse cx="316.8" cy="810.6" rx="23" ry="2.6" class="B"/><ellipse cx="905.5" cy="747.4" rx="23" ry="2.6" class="B"/><ellipse cx="714.2" cy="734.9" rx="23" ry="2.6" class="B"/><ellipse cx="590.5" cy="793.7" rx="27.2" ry="4.7" class="B"/><path d="M602.6 746.7s-38 19.6-18.3 42.6c0 0 1.8 5 7.2 4.6 0 0-1-2 3-3.5 1.4-.6 2.8-1.3 4-2.2 1.7-1.2 3-3 3.7-5h0S610 773 604 754c0 0 .8-5.4.1-6.3l-4.6 6.3s4.8 3.2 5.3 8c0 0-5-8-6-7-.2.2-2.3 3.4-2.3 3.4s8.2 5.6 9 13c0 0-4.6-10.2-9.6-11.6l-3 5s9 5.5 10 13.7c0 0-5.2-10.5-10.6-12.6l-2 5.4s8.7 5.5 9.5 12.4c0 0-7.3-11.5-10-11 0 0-1.6 5-1.4 6.6 0 0 6 4 6.2 8 0 0-5.7-7-6.5-6.7 0 0-.4 7.2 1.4 11 0 0-3-5.3-2.5-11a12 12 0 0 0-3.6 5.8c0 0-1.6-4 3.7-7.6 0 0 .5-5.6 1-6.3 0 0-5.8 2.8-8.3 6.3 0 0 1-5.2 8.8-7.8l2-5.5s-8 3.3-10.3 6.3c0 0 1.8-5 11-7.6l2.7-5s-7 2.4-10.4 5c0 0 2.6-4.4 11.3-6.5l2.2-3-6.5 2.5c-1.4.6-1.7.3-1.7.3 2.6-2.2 5.7-3.6 9-4 0 0 5-6.2 4.7-6.5z"/></g><path d="M803.5 420.7c-6.5-17.8-42.5-19.4-58.2-15a467 467 0 0 1-47 8.7l-.8-.8c1.6-.5 1.7-1.7 1.5-3.4v-7c7.7 2.4 14.5-3.3 14.5-3.3h0c9-4 6.6-21 8.3-25.8 1.3-3.5 2.7-24 3.3-34.4h.1l.1-3.4L728 304c1.6-4.7 3-28.3 3-32l-1-30c.1-3.7-.4-22-16-28.8l-19.3-8.6c-1.7-14.8-5.6-29.6-5.3-44.6a69 69 0 0 1 .4-6.7l-.1 6.4c.6-18.7 7.7-37.5 7-55.8l-.4 5.4a58 58 0 0 0-1.9-18.4c-.6-2-1.4-4.3-3-5.7-1.6-1-3.5-2-5.5-2.2a110 110 0 0 0-14.4-2.7C671 78 670 76 668.5 74c-10-14-25.2-27-43-30-9-1.5-19.2-.2-25.2 6l-1.8 1.8c-3.3 4-4.7 9-8 13l-.7.8c-6.5 6-16.7 7-24 12.3-1.3 1-2.5 2-3.6 3a61 61 0 0 0-7.8 9.5c-3.3 4.6-6.6 9.4-7.7 15-2 11 5.4 21.4 6.8 32.5 3 24.8-24.3 46.8-19 71.2 1.4 6 4.4 11.5 8.8 15.8l-21.5 19.6.2 2h-.2l1 11-1 17.3 3 31c1.7 5 2.6 30.2 2.6 30.2l3.6 40.2c1.7 4.7-.7 21.8 8.3 25.8h0a19 19 0 0 0 9.1 3.8c-.5 3.7-.2 6.4 1.3 7.3.6.4 1.4.6 2 .6-.6 1-1.2 2-1.6 2.8-3.6-.4-7-1.2-10.5-2.5-9.7-4-42-13-51.2-6.7s-31.8 12-21.5 37.6 15.2 26 15.2 26a37 37 0 0 1 8.3 8.4 103 103 0 0 0 39.5 15.4l9.2.5c0 0-8 7-6.8 11s-2.4 36.2-2.4 36.2 8 8 11.4-2.5h.1c.6 1 4 4.8 10.6-.2l8.5-5.4 31.5-4.5a89 89 0 0 1 9.9-.1c5 .4 10-2.6 13-4.8a289 289 0 0 0 17.4 6.2c7 2 39.6 10.7 47.2 8 1.6-.6 3-1.6 4-3l7.3.2-3.4.7h64c3.8-.8 23.7-.2 29.5 0h1.6s21.8-4.3 12.8-26.5c-7-17-28.2-22-37.6-23.3l6.5-1.2c6.6-1 19.4-7 20.4-9s11.8-8 14.5-11.4a64 64 0 0 0 4.1-45.2zM623 470.4l-1.8.6-1.4 1.4c-1-.7-2.3-1.5-3.5-2.3l6.7.4zm95.3 28.2h0z" transform="translate(-88.6 -43.4)" fill="url(#A)"/><path d="M598 321.6s15.3 40 24 36 6.3-21 8-25.7 3.5-40 3.5-40l2.5-30c1.5-4.6 2.8-28 3-31.8l-1.6-29.5-9.3-2.3-21.7 8-4.7 26.7z" class="D"/><path d="M603 315s14.6 12 19 13 7 10.4 7 10.4" class="B"/><path d="M478.4 323.3s-15.3 40-24 36-6.3-21-8-25.7-3.5-40-3.5-40-.8-25-2.5-30c-1.5-4.6-2.8-28-3-31.8v-.5l1.7-29 9.3-2.3 21.7 8 4.7 26.7z" class="D"/><path d="M544 109.3H578v53.2H544z" class="I"/><path d="M544 109.3H578v53.2H544z" class="B"/><use xlink:href="#B" class="G"/><use xlink:href="#B" opacity="0"/><path d="M638 201l-30 24H473l-11-.8-23-22 30.5-29.2c5.6-4.7 11-8.4 14.8-10l.7-.2c2.4-1 4.6-2.5 6.3-4.4 11.3-11.6 21.7-40.3 21.7-40.3s49.7-25.7 43.7 8 22.3 25.3 22.3 25.3l43.7 20C639.4 179.3 638 201 638 201z" class="D"/><circle cx="537.4" cy="101.1" r="44.7" class="B"/><path d="M638 232.8H437.4v-.5l1.7-29 30.5-29.2 126-5 6-6.2 21.2 9.7C639.4 180.3 638 202 638 202s2.3 25 .1 30.8z" class="B"/><path d="M638 231.8H437.4v-.5l1.7-29 30.5-29.2 126-5 6-6.2 21.2 9.7C639.4 179.3 638 201 638 201s2.3 25 .1 30.8z" class="E"/><path d="M505.2 150.5s31.7 40.3 73.8-.8 4.7 91.8 4.7 91.8l-91 10.8z" class="B"/><path d="M505.2 152.5s31.7 40.3 73.8-.8 4.7 91.8 4.7 91.8l-91 10.8z" class="E"/><path d="M592 159.6l14.7 186c-2 5 1 9 1.4 11.7s-.4 9.3-.1 12.3 0 4.3-7.7 3.3l-18.3-3s-27 2-36.3-1.3-27-3.3-27-3.3-26.7.7-35.3-.3-13.3 10.7-19 7.3 6.7-35.7 10.7-45-5.3-33-5.3-33l14.7-81.7.7-47.7c2.4-1 4.6-2.5 6.3-4.4l3 47.7 94 3.3V158" class="B"/><path d="M592 157.6l14.7 186c-2 5 1 9 1.4 11.7s-.4 9.3-.1 12.3 0 4.3-7.7 3.3l-18.3-3s-27 2-36.3-1.3-27-3.3-27-3.3-26.7.7-35.3-.3-13.3 10.7-19 7.3 6.7-35.7 10.7-45-5.3-33-5.3-33l14.7-81.7.7-47.7c2.4-1 4.6-2.5 6.3-4.4l3 47.7 94 3.3V156" class="E"/><use xlink:href="#C" class="B"/><use xlink:href="#C" x="1" y="-1" class="I"/><path fill="#c3c7d9" d="M581.8 492.7l39.7 1.3-5.7-29.4-30.4 3-3.6 25.3z"/><path d="M704.7 423c-2.7 3.3-13 9.3-14 11.3s-13.3 8-19.7 9-26.3 5.3-30 7.7c-2.6 1.7-23.7 7-37.6 10a107 107 0 0 1-11.4 2c-6 .3-71.7-22-71.7-22l13.4-13.2 29.3-9.5c10.3-3 22.3-15.3 22.3-15.3l20-6.7c2.3-.7-6-23.3-6-23.3s38.3-5.3 53.3-9.8 49.7-2.8 56 14.8-1.3 41.7-4 45z" class="G"/><path d="M530 479.3s-7.7 8-15.3 7.3-34.5 2-34.5 2a54 54 0 0 0-13.5 7.8c-6.3 5-9.6 1-10.2.2l-.1-.2c-3.3 10.5-11 2.5-11 2.5l2.3-36c-1-4 6.6-11 6.6-11l9-2.3L486 444l32.7 11.3z" class="E"/><path d="M463.2 449.8l-7 46.7c-3.3 10.5-11 2.5-11 2.5l2.3-36c-1-4 6.6-11 6.6-11zm47.2-133s17.7 6 33 0m27.3 11.3s7.3 3.7 13 0m-13 8.7s12.3 1.6 14.7-1.7m-18.7 20.3s23.2-3 29-7m-99.7 0a55 55 0 0 0 22.7 7M603.4 461a107 107 0 0 1-11.4 2c-6 .3-71.7-22-71.7-22l13.4-13.2 4.8 3.5c5.5 4.3 10.8-1.3 12.8-1.3a162 162 0 0 1 19.3 14.3s16 3.7 18.7 7 12 2.7 13.7 5c.5.7.6 2.5.4 4.6z" class="B"/><path d="M480.2 374.3s-16.2 1-25.5-3-40.3-13-49.3-6.6-30.7 12-20.7 37.3 14.7 26 14.7 26a36 36 0 0 1 8 8.3c3 4.7 31 15.3 38 15.3s19.3 0 36.7 12 33 13.3 33 13.3l29 11c7 2 38 10.7 45.5 8s12-19.3 12-19.3 3.3-15 1.7-17.3-11-1.7-13.7-5-18.7-7-18.7-7-17.3-14.3-19.3-14.3-7.3 5.7-12.8 1.3c-11-8-22.5-15.5-34.5-22-12.7-6.7-24-38-24-38z" class="G"/><path d="M447.7 384c5.8-1.2 12 .4 16.4 4.3a290 290 0 0 0 34.9 20.1m148.7-24.8s-35.7 5.4-42.3 12.7" class="B"/><path d="M688.7 494H687a269 269 0 0 0-28.4 0c-4.3 1-61.7 0-61.7 0l11.2-2.3S604 477 606.7 476c0 0-15-10-3.7-16.5s23.5-4 23.5-4l33.8-11.5s32 1.7 40.7 23.7-12.3 26.3-12.3 26.3z" class="E"/><path d="M688.7 494H687c9.3-7.7 30.4-31-32.2-48l5.5-1.8s32 1.7 40.7 23.7-12.3 26.3-12.3 26.3z" class="B"/><g class="G"><circle cx="629.9" cy="466.3" r="1.8"/><circle cx="619.7" cy="469.2" r="1.8"/></g><path d="M570.2 99.4c.4-11-1.6-22-5.7-32-13 2-27.2-8-39-2-8.8 4.4-11.5 15.6-12 25.4v7.8c0-1 0-1.8.1-2.8.5-9.8 3.2-21 12-25.4 11.8-6 26 4 39 2 3.5 8.6 5.5 17.8 5.7 27zm-100.8-1.8a35 35 0 0 0-.1-6.5c-1-8.8-6-17.2-6.7-25.8-1 10.3 5.5 20.3 6.7 30.8.1.5.1 1 .1 1.5zm52.6 89.7c-.6 7.4-2.4 15.4-8 20.3s-16 4.7-19-2c-1-2-1-4.3-2-6.3-2.2-4.6-7.7-6.4-12.5-8.2C467 186 454 176 451 162c-.3-1.3-.4-2.6-.5-4a34 34 0 0 0 .5 9c3 14.2 16 24 29.5 29.2 4.8 1.8 10.2 3.6 12.5 8.2 1 2 1.2 4.3 2 6.3 3.2 6.7 13.5 7 19 2s7.3-12.8 8-20.3l.3-11.7-.3 6.7zm77.3-73.3v4.3C600 99.8 606.7 81 606 63c-.5 16.8-6.3 34-6.7 51.2zM578 189.3c.2-1.2.3-2.4.2-3.6a20 20 0 0 0-2.7-7.3c-5.8-11-12.4-22.3-13-34.5l-.1 1.6c-.4 13.5 7 26 13.2 38a24 24 0 0 1 2.4 5.9zm27-14.5a82 82 0 0 1-10 34.5c-5.3 9.6-14.6 19.2-25.4 17.3-1-.1-2-.5-2.6-1.2-.2-.2-.4-.5-.5-.8l-.3 2.4c-.2 1.2.1 2.4.8 3.4.7.7 1.6 1 2.6 1.2 10.8 1.8 20-7.7 25.4-17.3a79 79 0 0 0 10-34.5 86 86 0 0 0 .1-7l-.1 2z" class="B"/><path d="M606.7 476s25.3 10.6 42-13m-37 31.4s20.7-13.4 47-.4m-185.3-2.6s8.7-19.6 32-4.6" class="B" fill="none" stroke="#000" stroke-miterlimit="10"/><use xlink:href="#D" class="B"/><use xlink:href="#D" y="1" class="F"/><path d="M437.4 204.8l7.8 93.7 83 4.2-3.7-94.8-87.2-3z" class="B"/><path d="M437.4 202.8l7.8 93.7 83 4.2-3.7-94.8-87.2-3z" class="C"/><path d="M635.3 202.8l-85.6 12.8v94l83.7-12 2-94.8z" class="B"/><path d="M635.3 200.8l-85.6 12.8v94l83.7-12 2-94.8z" class="C"/><path fill="#fff" opacity=".3" d="M615 223.8l-46.2 5 1 15.8 45.2-5v-16z"/><path d="M449.7 346.7l4.7 12.7s7 6 14.7 3 14.3-4.5 17.7-7.4 8-17.6 8-17.6 4.7-16 9.3-20 17-59 0-53.7-30 55.4-30 55.4-3 3.7-7.3 4-13-.7-14.7 3-7.4 13.3-2.4 20.7z" class="D"/><use xlink:href="#E" class="B"/><use xlink:href="#E" y="-2" class="C"/><use xlink:href="#E" y="-2" class="B"/><path d="M551.7 203s34.8-10.6 44-9m-83 4.5s-33.8-8-39.4-5.7m100.3 11.7s23.3-8.5 31.7-4.5M562 418.7l28.5-17.4m-117-84.6l-19 13c-4.4 1-7 10.4-7 10.4" class="B"/><path d="M626.7 345l-4.7 12.7s-7 6-14.7 3-14.3-4.5-17.7-7.4-8-17.6-8-17.6-4.7-16-9.3-20-17-59 0-53.7 30 55.4 30 55.4 3 3.7 7.3 4 13-.7 14.7 3 7.3 13.3 2.3 20.6z" class="D"/><path d="M618.6 321.5s9.6 6 9.5 13.5" class="B"/><circle cx="537.5" cy="98.9" r="44.7" class="D"/><path d="M509.5 87c5.4-1 10.2-4 15.3-5.8 11.6-4 24.4-1.3 36 2.4 4.5 1.4 9 3 13.8 3s9.7-2 12-6c2.2-3.7 1.8-8.6-.1-12.5s-5-7-8.2-10C568.3 48 555.4 39 541 40c-5.7.4-11.2 2.5-16.5 4.7l-19.4 9.8C500.4 57 491.5 61 488.7 66c-6.3 11.5 11 22.5 20.8 21z" class="I"/><path d="M587 76.3c-2.4 4-7.4 6-12 6s-9.3-1.5-13.8-3c-11.7-3.7-24.5-6.5-36-2.4-5.2 1.8-10 5-15.3 5.8-8 1.2-20.6-5.6-22-14.4-1.5 10 13.2 18.8 22 17.4 5.4-.8 10.2-4 15.3-5.8 11.6-4 24.4-1.3 36 2.4 4.5 1.4 9 3 13.8 3s9.7-2 12-6c1.2-2.2 1.7-4.8 1.4-7.3-.2 1.5-.6 3-1.4 4.3z" class="B"/><path d="M949.4 618.2s6 7.8-2.7 19.5-15.8 21.6-13 29c0 0 13-21.7 23.7-22s3.6-13.2-8-26.3z" class="C"/><path d="M949.4 618.2c.5.7 1 1.6 1.2 2.4 10.4 12.2 16 23.6 6 24-9.3.3-20.5 17-23 21l.3 1s13-21.7 23.7-22 3.6-13.3-8-26.3z" class="B"/><g fill="#ffd037"><path d="M960.4 628c0 2.7-.3 5-.7 5s-.7-2.2-.7-5 .4-1.4.8-1.4.6-1.3.6 1.4z"/><path d="M964.2 631.4c-2.4 1.3-4.5 2-4.7 1.8s1.6-1.7 4-3 1.4-.4 1.6 0 1.4-.1-1 1.2z"/></g><path d="M918 618.2s-6 7.8 2.7 19.5 15.8 21.6 13 29c0 0-13-21.7-23.7-22s-3.6-13.2 8-26.3z" class="C"/><path d="M918 618.2c-.5.7-1 1.6-1.2 2.4-10.4 12.2-16 23.6-6 24 9.3.3 20.5 17 23 21-.1.3-.2.7-.3 1 0 0-13-21.7-23.7-22s-3.6-13.3 8-26.3z" class="B"/><g fill="#ffd037"><path d="M907 628c0 2.7.3 5 .7 5s.7-2.2.7-5-.4-1.4-.8-1.4-.6-1.3-.6 1.4z"/><path d="M903.3 631.4c2.4 1.3 4.5 2 4.7 1.8s-1.6-1.7-4-3-1.4-.4-1.6 0-1.4-.1 1 1.2z"/></g><ellipse cx="933.8" cy="716.4" rx="62" ry="9.5" class="B C"/><path d="M965.7 656l-6.7 54.4c-.4 3.5-6 6.2-13 6.2h-24.7c-7 0-12.5-2.7-13-6.2l-6.6-54.4c-.2-2 2.8-3.6 6.7-3.6H959c4 0 7 1.6 6.7 3.6z" fill="#65617d"/><path d="M965.4 658.5l-.4 3.4h-62.4l-.4-3.4h63.2zm-.6 5l-.4 3.4H903l-.4-3.4h62zm-.6 4.8l-.4 3.4h-60l-.4-3.4h61z" fill="#9d9cb5"/></svg>