<svg xmlns="http://www.w3.org/2000/svg" viewBox="0 0 512 512"><circle cx="256" cy="256" r="256" fill="#f0f0f0"/><path d="M256 0A256 256 0 0 0 15.9 167H496A256 256 0 0 0 256 0z" fill="#d80027"/><path d="M256 512a256 256 0 0 0 240.1-167H16A256 256 0 0 0 256 512z"/><path d="M345 228.2h-66.8c0-12.3-10-22.3-22.3-22.3s-22.3 10-22.3 22.3H167c0 12.3 10.7 22.3 23 22.3h-.7c0 12.3 10 22.3 22.3 22.3 0 12.3 10 22.3 22.3 22.3h44.5c12.3 0 22.3-10 22.3-22.3 12.3 0 22.3-10 22.3-22.3h-.7c12.3 0 23-10 23-22.3z" fill="#ff9811"/></svg>