<svg xmlns="http://www.w3.org/2000/svg" viewBox="0 0 512 512"><circle cx="256" cy="256" r="256" fill="#f0f0f0"/><g fill="#0052b4"><path d="M53 100a255 255 0 0 0-44.1 89.1h133l-89-89zm450.2 89.2a255 255 0 0 0-44.1-89.1l-89 89h133.2zM8.8 322.8a255 255 0 0 0 44.1 89.1l89-89H8.8zM412 53a255 255 0 0 0-89.1-44.1v133l89-89z"/><path d="M100 459a255 255 0 0 0 89.1 44.1V370l-89 89zM189.2 8.8a255 255 0 0 0-89.1 44.1l89 89V8.8zm133.6 494.4a255 255 0 0 0 89.1-44.1l-89-89v133.2zM370 322.8l89 89a255 255 0 0 0 44.1-89.1H370z"/></g><path d="M509.8 222.6H289.4V2.2C278.5.7 267.3 0 256 0l-33.4 2.2v220.4H2.2C.7 233.5 0 244.7 0 256s.7 22.5 2.2 33.4h220.4v220.4L256 512c11.3 0 22.5-.7 33.4-2.2V289.4h220.4c1.4-11 2.2-22 2.2-33.4l-2.2-33.4zm-187 100.2h0L437 437l15-16.4-97.8-97.8h-31.5zm-133.6 0h0L75 437a231 231 0 0 0 16.4 15l97.8-97.8v-31.5zm0-133.6h0L75 75a231 231 0 0 0-15 16.4l97.8 97.8h31.5zm133.6 0h0L437 75l-16.4-15-97.8 97.8v31.5z" fill="#d80027"/></svg>